# xmcd CD database file
#
# Track frame offsets:
#	150
#	16260
#	33050
#	44190
#	65033
#	77745
#	102263
#	119280
#	132660
#	153948
#	166705
#	186675
#
# Disc length: 2644 seconds
#
# Revision: 3
# Processed by: cddbd v1.5.1PL2 Copyright (c) Steve Scherf et al.
# Submitted via: CDex 1.51
#
DISCID=a20a520c
DTITLE=Great Women of Jazz - Great Women of Jazz
DYEAR=2002
DGENRE=Jazz
TTITLE0=Ella Fitzgerald - But Not For Me
TTITLE1=Billie Holiday - Stormy Weather
TTITLE2=Nancy Wilson - Here's That Rainy Day
TTITLE3=Etta James - You've Changed
TTITLE4=Dinah Shore - Deep Purple
TTITLE5=Vanessa Rubin - Black Coffee
TTITLE6=Lena Horne - I Understand
TTITLE7=Julie London - Cry Me A River
TTITLE8=Cleo Laine - Willow Weep For Me
TTITLE9=Nina Simone - Since I Fell For You
TTITLE10=Della Reese - These Foolish Things
TTITLE11=Carmen McRae - I Will Say Goodbye
EXTD=YEAR: 2002
EXTT0=
EXTT1=
EXTT2=
EXTT3=
EXTT4=
EXTT5=
EXTT6=
EXTT7=
EXTT8=
EXTT9=
EXTT10=
EXTT11=
PLAYORDER=
